# xmcd
# Copyright (C) 1995-1998 Ti Kan
#
# Track frame offsets:
#       150
#       16561
#       35784
#       58858
#
# Disc length: 1055 seconds
#
# Revision: 0
# Processed by: cddbd v1.5.2PL0 Copyright (c) Steve Scherf et al.
# Submitted via: CD-Transfer v1.0
#
DISCID=2b041d04
DTITLE=Billy Idol - Single
DYEAR=08
DGENRE=
TTITLE0=John Wayne (Radio Edit)
TTITLE1=John Wayne (Album Version)
TTITLE2=Blue Highway (From ''rebel Yell'' Album)
TTITLE3=Cradle Of Love (Live)
EXTD=
EXTT0=
EXTT1=
EXTT2=
EXTT3=
PLAYORDER=
